<?xml version="1.0" encoding="utf-8"?>
<!-- Generator: Adobe Illustrator 26.5.0, SVG Export Plug-In . SVG Version: 6.00 Build 0)  -->
<svg version="1.1" id="Capa_1" xmlns="http://www.w3.org/2000/svg" xmlns:xlink="http://www.w3.org/1999/xlink" x="0px" y="0px"
	 viewBox="0 0 841.89 595.28" style="enable-background:new 0 0 841.89 595.28;" xml:space="preserve">
<style type="text/css">
	.st0{fill:#FFFFFF;}
</style>
<g>
	<g>
		<path class="st0" d="M551.86,399.46c0-10.64,0.09-21.28-0.04-31.92c-0.06-4.74,2.71-8,6.18-6.49c1.22,0.54,2.6,2.29,2.64,3.52
			c0.22,7.31,0.03,14.63,0.05,21.95c0.02,11.03,0.04,22.06,0.16,33.09c0.03,2.75,0.34,5.5,0.64,8.23
			c1.13,10.37-9.44,18.66-17.84,19.01c-4.79,0.2-9.65,1.5-14.31,0.97c-6.3-0.72-12.85-1.9-18.54-4.44
			c-5.08-2.26-8.27-7.25-9.52-12.81c-0.47-2.1-0.65-4.3-0.68-6.46c-0.15-10.92-0.19-21.84-0.3-32.77
			c-0.09-8.07-0.24-16.13-0.35-24.2c-0.01-1.04-0.33-2.29,0.15-3.06c0.88-1.42,2.04-3.24,3.47-3.65c2.39-0.69,3.83,1.22,4.04,3.34
			c0.37,3.66,0.46,7.36,0.52,11.04c0.13,6.88,0.12,13.77,0.23,20.66c0.09,5.17-0.06,10.37,0.5,15.5c1,9.23,7.64,14.45,14.99,14.9
			c4.43,0.27,8.86,0.57,13.29,0.51c6.98-0.09,16.56-7.48,15.65-15.17c-0.46-3.87-0.08-7.83-0.08-11.75
			C552.43,399.46,552.15,399.46,551.86,399.46z M552.73,428.23c-13.86,10.11-28.02,5.25-42.19,2.28c-0.34,2.93,3.69,7.11,8.03,8.03
			c8.41,1.78,16.85,1.56,25.31,0.64C548.99,438.62,553.32,433.41,552.73,428.23z"/>
		<path class="st0" d="M529.43,408.61c3.34-2.6,5.98-4.86,8.83-6.8c2.03-1.39,4.55-2.33,6.45,0.08c1.89,2.4,0,4.28-1.65,5.86
			c-2.51,2.39-5.07,4.75-7.77,6.91c-4,3.2-7.42,3.31-11.34,0.03c-3.27-2.74-6.31-5.81-9.12-9.02c-1.49-1.71-1.76-4.07,0.43-5.74
			c2.19-1.67,4-0.49,5.71,1.08C523.81,403.62,526.71,406.17,529.43,408.61z"/>
		<path class="st0" d="M528.72,384.86c-0.76-1.2-2.34-2.61-2.1-3.55c0.35-1.34,2.03-2.34,3.14-3.48c1.06,1.1,2.89,2.14,2.98,3.32
			c0.09,1.2-1.52,2.53-2.39,3.8C529.8,384.92,529.26,384.89,528.72,384.86z"/>
		<path class="st0" d="M533.09,396.19c-1.29,0.75-2.67,2.18-3.86,2.05c-1.07-0.12-2.92-2.23-2.7-2.98c0.37-1.29,1.94-2.81,3.24-3.08
			c0.9-0.19,2.2,1.57,3.32,2.46C533.09,395.15,533.09,395.67,533.09,396.19z"/>
		<path class="st0" d="M480.78,396.22c-4.05-5.76-9.66-9.11-16.67-9.95c-3.01-0.36-5.95-1.22-8.51-2.48
			c-1.74-0.86-3.52-2.54-4.66-4.4c-0.8-1.31-1.05-2.6-0.71-3.72c0.35-1.16,1.3-2.14,2.76-2.83c2.81-1.33,5.9-2.52,9.45-3.62
			c1.15-0.36,3.53-1.1,4.05-0.71c0.5,0.38,0.41,2.79,0.37,3.95c-0.1,2.93,1.65,4.97,4.69,5.45c1.6,0.25,4.38-1.01,4.86-2.53
			c1.44-4.6,1.28-8.74-0.49-12.64c-1.79-3.95-5.07-3.83-7.96-3.73l-0.92,0.03c-7.42-0.84-13.98,2.44-20.04,5.87
			c-4.88,2.76-7.59,9.49-6.16,15.32c2.15,8.8,9.46,14.51,19.54,15.29c6.16,0.47,10.73,3.34,13.97,8.75
			c3.83,6.39,4.96,13.62,3.44,22.11c-0.83,4.66-3.5,7.6-7.7,8.5c-5.18,1.12-10.59,1.3-14.71,1.34c-4.39,0.08-7.9-1.15-10.69-3.62
			c-1.31-1.17-3.55-1.95-5.98-2.09c-1.5-0.1-3.57,1.16-4.29,2.56c-0.68,1.31-0.16,3.87,1.02,4.85c2.51,2.09,5.11,4.25,8.15,5.41
			c5.65,2.16,11.19,3.24,16.58,3.24c5.75,0,11.33-1.23,16.7-3.69c4.03-1.85,6.78-4.52,8.41-8.17
			C491.08,421.67,489.57,408.72,480.78,396.22z"/>
		<path class="st0" d="M465.01,416.91c-1.96-2.15-3.81-4.01-5.44-6.04c-1.41-1.76-1.96-4.13,0.14-5.4c1.24-0.75,3.93-0.61,5.08,0.27
			c2.86,2.2,5.34,4.93,7.71,7.68c1.76,2.04,1.5,4.5,0.02,6.67c-1.61,2.35-3.4,4.57-5.09,6.86c-1.54,2.09-3.64,2.56-5.69,1.28
			c-2.23-1.39-2.05-3.78-0.92-5.78C461.92,420.51,463.52,418.85,465.01,416.91z"/>
		<path class="st0" d="M449.87,418.62c-2.2,1.41-3.53,2.95-4.73,2.85c-1.17-0.1-2.85-1.73-3.13-2.96c-0.48-2.08,1.18-3.59,3.22-3.23
			C446.59,415.53,447.72,417.01,449.87,418.62z"/>
		<path class="st0" d="M455.18,421.81c-0.87-1.19-2.54-2.47-2.41-3.54c0.14-1.18,1.77-2.74,3.03-3.09c1.88-0.52,3.47,0.86,3.18,2.88
			c-0.19,1.32-1.47,2.48-2.26,3.71C456.2,421.78,455.69,421.79,455.18,421.81z"/>
		<path class="st0" d="M355.9,438.06c-0.88-1.16-2.28-1.89-4.06-2.12c-2.43-0.31-4.99-0.4-7.6-0.26
			c-8.54,0.46-17.38,0.93-25.44-2.87c-1.06-0.5-2.17-0.92-3.25-1.32c-3.08-1.15-5.74-2.15-7.02-4.79
			c-1.71-3.54-3.16-7.68-4.32-12.32c-1.74-6.99,0.14-14.27,1.79-20.69c1.48-5.76,4.45-10.47,8.57-13.61
			c7.95-6.06,16.5-9.08,25.56-8.91c0.2,0,0.41,0.02,0.62,0.03c1.04,0.06,2.33,0.14,3.42-0.59c1.83-1.23,3.72-2.75,3.86-4.74
			c0.16-2.21-2.12-4.45-3.71-5.27c-1.64-0.85-3.63-0.76-5.23-0.69l-0.31,0.01c-10.02,0.43-19.1,3.28-27.77,8.72
			c-10.16,6.37-14.18,16.19-16.32,23.02c-2.32,7.39-2.79,15.73-1.46,25.51c1.07,7.84,3.63,13.79,7.83,18.22
			c4.76,5.02,11.41,8.38,20.32,10.27c4.28,0.91,8.69,1.3,12.95,1.68c1.88,0.17,3.75,0.33,5.62,0.55c0.07,0.01,0.15,0.01,0.22,0.01
			c0.45,0,0.89-0.16,1.24-0.44c0.14-0.11,0.26-0.25,0.36-0.39c0.56,0,1.11-0.01,1.67-0.01c2.42-0.02,4.92-0.04,7.36,0.05
			c3.32,0.08,5.51-1.76,6-5.16C357.06,440.06,356.46,438.79,355.9,438.06z"/>
		<path class="st0" d="M321.23,390.59c0.92,0.49,2.88,0.91,3.16,1.83c0.4,1.33-0.09,3.21-0.84,4.5c-0.66,1.15-2.08,1.99-3.34,2.63
			c-2.49,1.25-2.53,2.6-0.79,4.59c1.23,1.4,2.53,2.94,3.11,4.66c0.44,1.29,0.33,3.59-0.5,4.26c-0.92,0.75-3.69,0.83-4.34,0.08
			c-2.98-3.49-5.57-7.32-8.11-11.15c-0.37-0.56-0.04-2.14,0.52-2.69c2.92-2.83,5.99-5.5,9.06-8.16
			C319.54,390.81,320.21,390.84,321.23,390.59z"/>
		<path class="st0" d="M332.95,403.54c-2.29,1.3-3.64,2.68-4.83,2.56c-1.05-0.11-2.85-2.12-2.67-2.9c0.3-1.24,1.91-2.92,3.07-2.99
			C329.62,400.13,330.85,401.86,332.95,403.54z"/>
		<path class="st0" d="M337.48,406.29c-0.73-1.1-2.25-2.43-2.01-3.24c0.37-1.22,1.96-2.08,3.03-3.09c0.95,1.01,2.6,1.98,2.65,3.04
			c0.06,1.09-1.44,2.26-2.25,3.4C338.43,406.36,337.95,406.33,337.48,406.29z"/>
		<path class="st0" d="M625.42,408.09c7.08,5.81,10.15,13.35,12.44,21.25c1.27,4.39,2.21,8.89,3.05,13.39
			c0.43,2.31-0.08,4.46-3.09,4.77c-3.19,0.33-4.12-1.74-4.83-4.29c-1.83-6.51-3.57-13.06-5.76-19.46
			c-1.8-5.24-5.19-9.82-10.88-10.63c-5.21-0.75-10.65,0-15.98,0.33c-0.61,0.04-1.6,1.66-1.59,2.53c0.15,8.71,0.38,17.42,0.81,26.13
			c0.12,2.48-0.21,4.49-2.74,5.24c-2.68,0.8-4.66-0.33-5.05-3.15c-0.55-3.99-1.07-8.01-1.12-12.03
			c-0.14-11.31,0.06-22.62-0.04-33.93c-0.07-8.38-0.4-16.77-0.59-25.15c-0.01-0.57,0.08-1.15,0.22-1.71
			c0.45-1.74,0.6-3.36-1.81-3.55c-2.33-0.18-3.46,0.56-3.41,3.35c0.24,14.2,0.25,28.4,0.3,42.6c0.03,9.07,0.01,18.15,0,27.22
			c0,0.69-0.01,1.43-0.25,2.05c-0.77,2-1.74,3.94-4.34,3.74c-2.72-0.21-3.28-2.31-3.33-4.48c-0.12-4.97-0.11-9.94-0.11-14.9
			c0-18.26,0.02-36.51,0.02-54.77c0-1.48-0.13-2.97-0.2-4.54c-1.66-0.31-3.38-0.18-4.47-0.95c-1.23-0.86-2.58-2.51-2.61-3.85
			c-0.02-1.04,1.8-2.9,2.97-3.05c3.73-0.46,7.54-0.45,11.31-0.32c5.06,0.17,10.1,0.8,15.15,0.92c7.86,0.2,15.39,1.82,22.26,5.55
			c2.23,1.21,3.91,3.71,5.42,5.9c4.1,5.96,5.56,12.9,6.45,19.9c0.73,5.73-2.32,10.16-5.95,14.2
			C627.07,407.06,626.23,407.49,625.42,408.09z M598.24,396.81c0.11,1.75,0.27,3.01,0.26,4.28c-0.03,3.11,1,4.67,4.52,4.05
			c4.27-0.75,8.6-1.2,12.92-1.6c4.13-0.38,6.76-2.85,8.62-6.15c3.57-6.34-2.24-22.99-9.1-25.35c-4.64-1.6-9.62-2.19-14.46-3.16
			c-1.9-0.38-2.76,0.55-2.76,2.49C598.25,380.01,598.24,388.65,598.24,396.81z"/>
		<path class="st0" d="M611.33,388.25c-1.97-2.26-4.2-4.22-5.6-6.65c-0.77-1.34-0.79-3.94,0.05-5.11c0.6-0.85,3.86-1.03,4.76-0.21
			c3.35,3.04,6.34,6.51,9.17,10.06c0.66,0.83,0.74,3.06,0.1,3.84c-2.81,3.41-5.84,6.68-9.14,9.61c-0.67,0.6-3.25-0.06-4.2-0.94
			c-0.76-0.7-0.97-2.98-0.4-3.95C607.45,392.55,609.43,390.58,611.33,388.25z"/>
		<g>
			<path class="st0" d="M213.63,426.04c-0.35-5.62-0.97-10.17-1.95-14.32c-0.43-1.81-0.84-3.63-1.26-5.44
				c-1.77-7.74-3.6-15.74-6.54-23.19c-2.23-5.63-5.46-10.9-8.88-16.49c-1.49-2.43-3.02-4.93-4.55-7.58l1.71-1.4
				c1.95-1.6,4.1-3.35,6.19-5.17c3.5-3.04,2.31-5.54,1.29-6.75c-1.69-2.01-4.22-2.18-6.94-0.48c-1.63,1.02-3.09,2.33-4.37,3.49
				c-1.11,1-2.17,2.06-3.24,3.13l-0.95,0.94c-0.88-0.63-1.74-1.25-2.61-1.88c-2.78-2.02-5.41-3.92-8.23-5.66
				c-1.37-0.84-3.81-0.89-5.12-0.09c-1.32,0.8-1.82,3.28-1.59,4.63c0.32,1.9,2.13,3.5,2.68,3.94c2.09,1.7,4.24,3.27,6.52,4.93
				c0.74,0.54,1.48,1.08,2.24,1.64l-0.05,0.11c-0.15,0.32-0.26,0.55-0.4,0.77c-6.73,10.41-11.19,20.08-13.61,29.58
				c-2.26,8.84-3.44,18.09-4.58,27.04l-0.38,2.95c-0.68,5.31-0.99,10.75-1.28,16c-0.11,1.95-0.22,3.91-0.34,5.86
				c-0.17,2.66,1.3,4.49,4.14,5.16c1.24,0.29,2.3,0.16,3.16-0.39c0.95-0.6,1.59-1.67,1.9-3.18c0.34-1.61,0.64-3.23,0.95-4.95
				l0.32-1.75h36.46l0.1,1.6c0.09,1.52,0.18,2.89,0.21,4.25c0.03,1.71,0.1,5.26,4.18,5.27c0.01,0,0.01,0,0.02,0
				c3.03,0,4.95-1.98,5.01-5.17C213.93,438.18,214,432.07,213.63,426.04z M202.83,415.33c-0.27,0.35-0.97,0.41-1.52,0.39l-12.97-0.3
				c-6.35-0.14-12.69-0.29-18.89-0.41c-0.06-0.03-0.12-0.07-0.21-0.13c-0.06-0.04-0.12-0.08-0.19-0.12
				c1.57-17.35,6.59-32.46,15.34-46.12c5.9,7.67,10.27,14.53,12.47,22.62c1.21,4.43,2.4,8.88,3.59,13.32l2.36,8.79
				C203.14,414.59,203,415.11,202.83,415.33z M168.54,425.32c0.26-0.35,1.33-0.37,2.04-0.39c0.7-0.02,1.41-0.01,2.11-0.01h0.16
				l0,0.28l7.67,0c6.81-0.01,13.62-0.01,20.43,0.04c0.29,0.03,0.63-0.03,0.98-0.06c0.65-0.06,1.37-0.13,1.66,0.13
				c0.19,0.18,0.29,0.6,0.28,1.19c-0.01,0.61-0.15,1.04-0.4,1.27c-0.44,0.41-1.35,0.38-2.15,0.35c-0.22-0.01-0.44-0.02-0.64-0.02
				c-0.02,0-0.04,0-0.07,0c-3.01,0.02-6.08-0.09-9.05-0.21c-1.92-0.08-3.84-0.15-5.77-0.19c-1.98-0.04-3.96-0.05-5.95-0.05
				c-3.06-0.01-6.22-0.02-9.32-0.16c-0.69-0.03-1.88-0.86-2-1.29C168.42,425.78,168.42,425.47,168.54,425.32z"/>
			<path class="st0" d="M188.43,402.31c-1.01-0.84-2.07-1.76-3.24-1.68c-1.15,0.03-2.57,1.32-3.19,2.13
				c-0.51,0.67-0.71,1.24-0.59,1.72c0.42,1.69,2.22,3.56,3.78,3.92c0.13,0.03,0.25,0.04,0.38,0.04c0.94,0,1.85-0.77,2.8-1.58
				c0.38-0.32,0.76-0.64,1.12-0.89l0.33-0.22l0.1-2.32l-0.36-0.25C189.18,402.94,188.81,402.63,188.43,402.31z"/>
			<path class="st0" d="M184.87,391.59c0.25,0.04,0.5,0.06,0.75,0.06c1.08,0,2.06-0.39,2.72-1.11c0.73-0.8,0.96-1.89,0.66-3.07
				c-0.4-1.56-2.29-3.34-3.82-3.58c-1.08-0.18-2.12,0.65-3.11,1.45c-0.36,0.29-0.73,0.59-1.08,0.81l-0.36,0.23l-0.04,2.36l0.33,0.24
				c0.35,0.25,0.69,0.56,1.04,0.86C182.83,390.61,183.74,391.41,184.87,391.59z"/>
		</g>
		<path class="st0" d="M233.68,427.82c-1.67,0-3.62-0.58-3.96-5.14c-0.34-4.59-0.48-9.3-0.61-13.85c-0.06-1.91-0.11-3.82-0.18-5.73
			c-0.08-2.05-0.14-4.09-0.21-6.14c-0.19-6.03-0.39-12.26-0.86-18.39c-0.17-2.21-2.82-4.37-4.58-5.02c-4.1-1.5-4.04-2.87-3.66-4.04
			c0.63-1.96,2.73-4.35,4.01-4.58c2.92-0.51,5.96-0.58,8.82-0.58l4.43,0.02c0.78,0,1.57,0,2.35-0.02l0.26,0
			c0.46,0,0.92,0.02,1.38,0.04c0.51,0.02,1.02,0.05,1.52,0.05c0.99,0,1.78-0.09,2.51-0.29c1.94-0.52,3.88-0.79,5.77-0.79
			c7.68,0,14.08,4.43,18.81,8.3c3.73,3.05,5.85,8.06,5.82,13.76c-0.03,6.77-3,13.19-7.95,17.16c-0.34,0.27-0.55,0.67-0.58,1.11
			c-0.03,0.43,0.12,0.86,0.42,1.18c1.1,1.16,2.18,2.34,3.26,3.51c2.48,2.69,5.04,5.47,7.73,8.05c3.24,3.11,2.45,5.1,1.11,6.79
			c-0.89,1.13-1.94,1.7-3.11,1.7c-1.06,0-2.21-0.45-3.33-1.31c-3.33-2.56-6.51-5.56-9.45-8.89c-6.84-7.78-10.43-10.2-19.53-10.2
			c-1.28,0-2.67,0.05-4.21,0.13c-0.83,0.04-1.47,0.73-1.47,1.55c0,1.73,0.02,3.43,0.03,5.1c0.04,3.85,0.08,7.48-0.1,11.13
			c-0.26,5.37-3.25,5.39-4.38,5.4H233.68z M237.86,373.83c-0.42,0-0.83,0.17-1.12,0.48c-0.31,0.32-0.46,0.75-0.43,1.19l1.29,18.82
			c0.06,0.82,0.74,1.45,1.55,1.45c1.8,0,3.53,0.06,5.21,0.11c1.62,0.05,3.19,0.1,4.73,0.1l0,0c2.52,0,4.56-0.14,6.43-0.43
			c2.13-0.33,10.43-2.82,10.35-6.16c-0.09-3.7-2.02-8.12-5.16-11.83c-3.54-4.18-7.74-4.67-10.59-4.67c-1.89,0-3.84,0.24-5.73,0.48
			c-1.91,0.24-3.88,0.48-5.79,0.48C238.38,373.85,237.88,373.83,237.86,373.83z"/>
		<path class="st0" d="M250.55,381.54c1.09,1.59,3.07,3.22,3,4.77c-0.05,1.3-2.49,3.48-3.86,3.46c-1.31-0.02-3.41-2.23-3.63-3.7
			c-0.2-1.32,1.68-2.96,2.64-4.46C249.32,381.58,249.94,381.56,250.55,381.54z"/>
		<path class="st0" d="M249.86,436.16c8.45-0.23,16.91-0.43,25.36-0.69c2.95-0.09,5.59,0.57,6.15,3.83c0.6,3.46-2,4.97-4.8,5.24
			c-6.01,0.56-12.05,0.81-18.09,0.95c-7.59,0.17-15.18,0-22.77,0.18c-3.39,0.08-6.14-0.88-6.78-4.32c-0.7-3.78,2.47-4.94,5.29-5.21
			c5.17-0.5,10.4-0.47,15.61-0.66C249.84,435.7,249.85,435.93,249.86,436.16z"/>
		<path class="st0" d="M390.33,436.16c8.45-0.23,16.91-0.43,25.36-0.69c2.95-0.09,5.59,0.57,6.15,3.83c0.6,3.46-2,4.97-4.8,5.24
			c-6.01,0.56-12.05,0.81-18.09,0.95c-7.59,0.17-15.18,0-22.77,0.18c-3.39,0.08-6.14-0.88-6.78-4.32c-0.7-3.78,2.47-4.94,5.29-5.21
			c5.17-0.5,10.4-0.47,15.61-0.66C390.32,435.7,390.33,435.93,390.33,436.16z"/>
		<path class="st0" d="M393.4,396.69c-0.29-0.38-0.59-0.75-0.9-1.13c-0.81-0.99-1.82-2.22-1.78-2.89c0.05-0.73,1.69-2.61,2.52-3.09
			c1.59,0.61,3.3,2.18,3.81,3.53c-0.19,0.49-1.13,1.57-1.71,2.23c-0.38,0.44-0.76,0.87-1.1,1.29L393.4,396.69z M393.43,389.49"/>
		<path class="st0" d="M417.08,425.89c-1.83,0-3.51-0.94-4.48-2.52c-0.19-0.3-0.48-0.54-0.82-0.65c-2.27-0.78-4.96-1.59-7.68-1.69
			c-2.64-0.09-5.23-0.11-8.31-0.11l-3.42,0c-4.77,0-9.84-0.04-14.75-0.55c-6.27-0.64-12.63-8.15-12.61-14.88
			c0.03-8.04,0.53-14.55,1.58-20.49c1.86-10.52,9.95-18.26,21.11-20.21c4.29-0.75,8.7-1.35,12.96-1.94l1.97-0.27
			c2.27-0.3,4.85-0.63,6.72-2.98c0.08-0.09,0.14-0.2,0.19-0.31c0.23-0.48,0.5-0.94,0.84-1.4c0.06-0.09,0.12-0.19,0.17-0.29
			c0.07-0.05,0.23-0.2,0.29-0.26c0.66-0.74,1.73-1.62,3.08-1.62c2.07,0,4.07,2.07,4.96,5.14c0.02,0.07,0.05,0.14,0.08,0.2
			c0.29,0.65,0.5,1.27,0.62,1.85c0.8,3.84,0.89,7.97,0.98,11.97c0.02,0.95,0.04,1.89,0.07,2.84c0.11,3.34,0.08,6.76,0.06,10.06
			c-0.01,1.48-0.02,2.97-0.02,4.45c0,0.43,0.18,0.83,0.46,1.11c0.13,2.14,0.29,4.28,0.46,6.43c0.46,6.09,0.93,12.4,0.76,18.54
			c-0.01,0.21-0.04,0.43-0.08,0.64c-0.03,0.18-0.03,0.41,0,0.59c0.07,0.35,0.11,0.71,0.11,1.06c0,2.34-1.52,4.36-3.79,5.04
			c-0.14,0.04-0.27,0.1-0.39,0.18c-0.09-0.01-0.18-0.02-0.26-0.02c-0.05,0-0.1,0-0.14,0.01
			C417.44,425.86,417.26,425.89,417.08,425.89z M400.01,372.86c-7.63,0-14.29,3.4-19.8,6.73c-1.42,0.86-2.65,2.83-2.81,4.49
			c-0.62,6.5-1.24,13.42-1.4,20.22c-0.05,1.99,0.5,3.58,1.61,4.71c1.18,1.2,2.91,1.81,5.15,1.81l0.44-0.01
			c3.18-0.11,6.65-0.16,10.94-0.16c2.49,0,5.02,0.02,7.62,0.03c2.74,0.02,5.56,0.03,8.48,0.03c0.43,0,0.83-0.17,1.13-0.48
			c0.29-0.31,0.45-0.72,0.43-1.15l-0.33-6.98c-0.39-8.39-0.76-16.31-1.3-24.41c-0.13-1.92-2.56-3.75-4.11-4.13
			C404.06,373.1,402.02,372.86,400.01,372.86z"/>
	</g>
	<g>
		<path class="st0" d="M283.99,486.09v-24.88h1.68v24.88H283.99z"/>
		<path class="st0" d="M297.47,486.23c-1.3,0-2.42-0.21-3.37-0.62c-0.95-0.41-1.68-1-2.18-1.76c-0.5-0.76-0.75-1.63-0.75-2.62
			c0-0.89,0.21-1.7,0.62-2.43c0.41-0.73,1.1-1.32,2.06-1.78c0.96-0.46,2.25-0.69,3.86-0.69h6.44v1.31h-6.41
			c-1.81,0-3.08,0.33-3.81,1.01c-0.73,0.67-1.09,1.51-1.09,2.51c0,1.12,0.42,2.01,1.27,2.68c0.85,0.67,2.05,1.01,3.59,1.01
			c1.48,0,2.72-0.34,3.74-1.01c1.02-0.67,1.77-1.64,2.26-2.92l0.47,1.14c-0.47,1.27-1.27,2.29-2.4,3.03
			C300.65,485.85,299.22,486.23,297.47,486.23z M303.78,486.09v-3.99l-0.07-0.6v-6.57c0-1.63-0.44-2.87-1.32-3.72
			c-0.88-0.85-2.17-1.27-3.87-1.27c-1.21,0-2.33,0.21-3.37,0.62c-1.04,0.41-1.93,0.94-2.67,1.59l-0.84-1.21
			c0.87-0.78,1.92-1.39,3.15-1.83c1.23-0.44,2.51-0.65,3.86-0.65c2.17,0,3.83,0.55,5,1.64c1.16,1.1,1.74,2.73,1.74,4.9v11.1H303.78z
			"/>
		<path class="st0" d="M320.91,486.09v-17.5h1.61v4.8l-0.17-0.54c0.49-1.41,1.32-2.49,2.48-3.25c1.16-0.76,2.62-1.14,4.36-1.14v1.64
			c-0.07,0-0.13-0.01-0.2-0.02c-0.07-0.01-0.13-0.02-0.2-0.02c-1.94,0-3.47,0.61-4.56,1.83c-1.1,1.22-1.64,2.91-1.64,5.08v9.12
			H320.91z"/>
		<path class="st0" d="M341.23,486.23c-1.5,0-2.79-0.27-3.89-0.82c-1.1-0.55-1.94-1.37-2.53-2.48c-0.59-1.11-0.89-2.48-0.89-4.11
			v-10.23h1.68v10.09c0,1.97,0.5,3.46,1.51,4.49c1.01,1.03,2.43,1.54,4.26,1.54c1.32,0,2.46-0.28,3.42-0.84
			c0.96-0.56,1.7-1.35,2.21-2.36c0.51-1.02,0.77-2.22,0.77-3.6v-9.32h1.68v17.5h-1.61v-4.86l0.24,0.57
			c-0.51,1.36-1.37,2.44-2.57,3.24C344.31,485.83,342.88,486.23,341.23,486.23z"/>
		<path class="st0" d="M353.67,470.03v-1.44h10.46v1.44H353.67z M361.65,486.23c-1.54,0-2.72-0.42-3.54-1.27
			c-0.82-0.85-1.22-2.01-1.22-3.49v-16.7h1.68v16.53c0,1.12,0.28,1.98,0.84,2.58c0.56,0.6,1.36,0.91,2.42,0.91
			c1.1,0,2-0.32,2.72-0.97l0.7,1.17c-0.45,0.42-0.99,0.74-1.63,0.94C362.97,486.13,362.32,486.23,361.65,486.23z"/>
		<path class="st0" d="M374.62,486.23c-1.3,0-2.42-0.21-3.37-0.62c-0.95-0.41-1.68-1-2.18-1.76c-0.5-0.76-0.75-1.63-0.75-2.62
			c0-0.89,0.21-1.7,0.62-2.43c0.41-0.73,1.1-1.32,2.06-1.78c0.96-0.46,2.25-0.69,3.86-0.69h6.44v1.31h-6.41
			c-1.81,0-3.08,0.33-3.81,1.01c-0.73,0.67-1.09,1.51-1.09,2.51c0,1.12,0.42,2.01,1.27,2.68c0.85,0.67,2.05,1.01,3.59,1.01
			c1.48,0,2.72-0.34,3.74-1.01c1.02-0.67,1.77-1.64,2.26-2.92l0.47,1.14c-0.47,1.27-1.27,2.29-2.4,3.03
			C377.8,485.85,376.37,486.23,374.62,486.23z M380.93,486.09v-3.99l-0.07-0.6v-6.57c0-1.63-0.44-2.87-1.32-3.72
			c-0.88-0.85-2.17-1.27-3.87-1.27c-1.21,0-2.33,0.21-3.37,0.62c-1.04,0.41-1.93,0.94-2.67,1.59l-0.84-1.21
			c0.87-0.78,1.92-1.39,3.15-1.83c1.23-0.44,2.51-0.65,3.86-0.65c2.17,0,3.83,0.55,5,1.64c1.16,1.1,1.74,2.73,1.74,4.9v11.1H380.93z
			"/>
		<path class="st0" d="M404.8,486.23c-1.63,0-3.1-0.37-4.41-1.12c-1.31-0.75-2.34-1.79-3.1-3.14c-0.76-1.34-1.14-2.88-1.14-4.63
			c0-1.77,0.38-3.31,1.14-4.64c0.76-1.33,1.79-2.37,3.1-3.12c1.31-0.75,2.78-1.12,4.41-1.12c1.54,0,2.93,0.36,4.17,1.07
			c1.24,0.71,2.22,1.73,2.95,3.05c0.73,1.32,1.09,2.91,1.09,4.76c0,1.81-0.36,3.39-1.07,4.73c-0.72,1.34-1.69,2.37-2.93,3.08
			C407.77,485.87,406.37,486.23,404.8,486.23z M404.9,484.72c1.34,0,2.54-0.31,3.61-0.92c1.06-0.61,1.9-1.48,2.51-2.6
			c0.61-1.12,0.92-2.4,0.92-3.86c0-1.48-0.31-2.77-0.92-3.87c-0.62-1.11-1.45-1.97-2.51-2.58c-1.06-0.61-2.26-0.92-3.61-0.92
			c-1.34,0-2.54,0.31-3.6,0.92c-1.06,0.62-1.9,1.48-2.51,2.58c-0.62,1.11-0.92,2.4-0.92,3.87c0,1.45,0.31,2.74,0.92,3.86
			c0.61,1.12,1.45,1.98,2.51,2.6C402.36,484.41,403.56,484.72,404.9,484.72z M411.98,486.09v-5.73l0.3-3.05l-0.33-3.05v-13.04h1.68
			v24.88H411.98z"/>
		<path class="st0" d="M427.8,486.23c-1.77,0-3.32-0.38-4.68-1.14c-1.35-0.76-2.42-1.81-3.19-3.15c-0.77-1.34-1.16-2.87-1.16-4.59
			c0-1.74,0.36-3.28,1.09-4.61c0.73-1.33,1.73-2.37,3-3.13c1.28-0.76,2.71-1.14,4.29-1.14s3.01,0.37,4.28,1.11
			c1.26,0.74,2.26,1.77,2.98,3.1c0.73,1.33,1.09,2.87,1.09,4.61c0,0.07-0.01,0.14-0.02,0.22c-0.01,0.08-0.02,0.16-0.02,0.25h-15.46
			v-1.31h14.55l-0.67,0.64c0.02-1.36-0.26-2.59-0.85-3.67c-0.59-1.08-1.39-1.93-2.4-2.55c-1.01-0.61-2.17-0.92-3.49-0.92
			c-1.3,0-2.45,0.31-3.47,0.92c-1.02,0.62-1.82,1.46-2.4,2.55c-0.58,1.08-0.87,2.32-0.87,3.71v0.3c0,1.43,0.32,2.7,0.96,3.81
			c0.64,1.11,1.51,1.97,2.63,2.58c1.12,0.62,2.39,0.92,3.82,0.92c1.12,0,2.16-0.2,3.13-0.6c0.97-0.4,1.8-1.02,2.46-1.84l0.97,1.11
			c-0.76,0.94-1.72,1.65-2.87,2.13C430.39,485.99,429.14,486.23,427.8,486.23z"/>
		<path class="st0" d="M440.71,486.09v-24.88h1.67v24.88H440.71z"/>
		<path class="st0" d="M465.02,486.23c-1.7,0-3.21-0.38-4.54-1.14c-1.33-0.76-2.38-1.81-3.15-3.15c-0.77-1.34-1.16-2.87-1.16-4.59
			c0-1.74,0.38-3.29,1.16-4.63c0.77-1.34,1.82-2.39,3.15-3.14c1.33-0.75,2.84-1.12,4.54-1.12c1.41,0,2.69,0.27,3.84,0.81
			c1.15,0.54,2.09,1.34,2.8,2.42l-1.24,0.9c-0.63-0.89-1.41-1.55-2.35-1.98s-1.96-0.64-3.05-0.64c-1.36,0-2.59,0.31-3.67,0.92
			c-1.09,0.62-1.94,1.48-2.55,2.58c-0.62,1.11-0.92,2.4-0.92,3.87c0,1.48,0.31,2.77,0.92,3.87c0.61,1.11,1.46,1.97,2.55,2.58
			c1.08,0.62,2.31,0.92,3.67,0.92c1.09,0,2.11-0.21,3.05-0.64s1.72-1.08,2.35-1.98l1.24,0.91c-0.71,1.07-1.65,1.88-2.8,2.41
			C467.71,485.96,466.43,486.23,465.02,486.23z"/>
		<path class="st0" d="M481.42,486.23c-1.3,0-2.42-0.21-3.37-0.62c-0.95-0.41-1.67-1-2.18-1.76c-0.5-0.76-0.75-1.63-0.75-2.62
			c0-0.89,0.21-1.7,0.62-2.43c0.41-0.73,1.1-1.32,2.06-1.78c0.96-0.46,2.25-0.69,3.85-0.69h6.44v1.31h-6.41
			c-1.81,0-3.08,0.33-3.81,1.01s-1.09,1.51-1.09,2.51c0,1.12,0.42,2.01,1.27,2.68c0.85,0.67,2.05,1.01,3.59,1.01
			c1.48,0,2.72-0.34,3.74-1.01c1.02-0.67,1.77-1.64,2.26-2.92l0.47,1.14c-0.47,1.27-1.27,2.29-2.4,3.03
			C484.6,485.85,483.16,486.23,481.42,486.23z M487.72,486.09v-3.99l-0.07-0.6v-6.57c0-1.63-0.44-2.87-1.32-3.72
			c-0.88-0.85-2.17-1.27-3.87-1.27c-1.21,0-2.33,0.21-3.37,0.62c-1.04,0.41-1.93,0.94-2.67,1.59l-0.84-1.21
			c0.87-0.78,1.92-1.39,3.15-1.83s2.52-0.65,3.86-0.65c2.17,0,3.83,0.55,4.99,1.64c1.16,1.1,1.74,2.73,1.74,4.9v11.1H487.72z"/>
		<path class="st0" d="M493.35,470.03v-1.44h10.46v1.44H493.35z M496.57,486.09v-20.19c0-1.45,0.42-2.62,1.26-3.5
			c0.84-0.88,2.04-1.33,3.6-1.33c0.65,0,1.28,0.1,1.91,0.28c0.63,0.19,1.14,0.48,1.54,0.86l-0.67,1.27
			c-0.34-0.34-0.74-0.58-1.21-0.74c-0.47-0.16-0.97-0.24-1.51-0.24c-1.07,0-1.89,0.3-2.45,0.89c-0.56,0.59-0.84,1.47-0.84,2.63v2.95
			l0.03,0.8v16.3H496.57z"/>
		<path class="st0" d="M514.04,486.23c-1.77,0-3.32-0.38-4.68-1.14c-1.35-0.76-2.42-1.81-3.19-3.15c-0.77-1.34-1.16-2.87-1.16-4.59
			c0-1.74,0.36-3.28,1.09-4.61c0.73-1.33,1.73-2.37,3-3.13c1.27-0.76,2.7-1.14,4.29-1.14c1.59,0,3.01,0.37,4.27,1.11
			c1.26,0.74,2.26,1.77,2.99,3.1c0.73,1.33,1.09,2.87,1.09,4.61c0,0.07-0.01,0.14-0.02,0.22c-0.01,0.08-0.02,0.16-0.02,0.25h-15.46
			v-1.31h14.55l-0.67,0.64c0.02-1.36-0.26-2.59-0.85-3.67c-0.59-1.08-1.39-1.93-2.4-2.55c-1.01-0.61-2.17-0.92-3.49-0.92
			c-1.3,0-2.45,0.31-3.47,0.92c-1.02,0.62-1.82,1.46-2.4,2.55c-0.58,1.08-0.87,2.32-0.87,3.71v0.3c0,1.43,0.32,2.7,0.96,3.81
			c0.64,1.11,1.51,1.97,2.63,2.58c1.12,0.62,2.39,0.92,3.82,0.92c1.12,0,2.16-0.2,3.14-0.6c0.97-0.4,1.79-1.02,2.46-1.84l0.97,1.11
			c-0.76,0.94-1.71,1.65-2.87,2.13C516.63,485.99,515.38,486.23,514.04,486.23z M511.49,465.74l4.66-3.96h2.41l-5.27,3.96H511.49z"
			/>
	</g>
	<g>
		<path class="st0" d="M290.62,228.44c3.93,0.1,6.93,2.36,6.14,6.46c-0.5,2.62-3.21,6.29-5.49,6.76c-3.81,0.78-7.24-1.47-7.37-6.38
			C283.77,230.82,286.14,228.86,290.62,228.44z"/>
		<path class="st0" d="M461.27,197.09l-56.77,0.57l-0.05-10.37c0.54-0.92,1.58-1.24,3.29-1.32c13.09-0.61,26.16-1.4,39.24-2.2
			c0.97-0.06,2.48,0.61,2.91-1.61c-4.24,0.82-4.54-1.52-4.69-4.94c-2.05-43.42-14.86-83.35-39.05-119.53
			c-1.09-1.62-2.88-2.97-1.79-5.52c0.55-1.29-0.55-2.32-1.96-2.28c-1.54,0.04-2.93,1.04-2.15,2.54c1.17,2.28-0.35,3.22-1.46,4.54
			c-2.11,2.51-4.3,4.97-6.23,7.61c-1.5,2.04-3.12,4.45-2.11,7.01c1.77,4.49,1.61,7.99-3.81,9.93c6.26,2.42,9.36,0.67,9.85-5.31
			c0.27-3.33,0.59-6.42,4.37-8.02c0,17.29-0.04,34.28,0.04,51.27c0.01,3.19-0.56,6.15-1.56,9.17c-5.77,17.36-14.65,32.95-26.73,46.6
			c-4.51,5.11-8.03,11.95-16.98,12.33c0.31,0.26,0.61,0.48,0.91,0.63c1.13,0.64,2.14,0.62,3.06,0.53c0.43-0.05,0.84-0.11,1.24-0.13
			c12.03-0.7,24.07-1.42,36.1-2.16c2.01-0.12,3.72-0.25,3.74,2.62l0,0.45c0,0.04,0,0.08,0,0.11l0,0l0.04,8.11l-64.06,0.64
			c-1.44,13.99-1.13,55.16,17.44,76.78c9.47,11.03,22.89,16.15,41,15.63c19.38-0.54,34.06-6.93,44.88-19.52
			C463.09,244.31,461.29,197.55,461.27,197.09z M442.31,182.39c-11.39,0.62-22.78,1.22-34.16,1.89c-1.65,0.1-3.01,0.15-3.73-0.9
			l-0.02-4.86c0.68-1.07,1.98-1.23,3.81-1.24C419.79,177.22,431.16,178.49,442.31,182.39z M403.59,57.66
			c3.7,10.15,3.94,38.9,0,51.58V57.66z M397.69,184.8c-10.8,0.55-21.61,1.13-32.78,1.72c4.19-3.47,30.21-9.92,34.36-8.69
			c0.78,0.23,1.16,0.59,1.35,1.03l0.01,2.15c-0.04,0.33-0.06,0.66-0.01,0.96c0.01,0.07,0.01,0.13,0.01,0.19l0,0.81
			C400.45,184.36,399.22,184.72,397.69,184.8z M368.49,234.9c-0.5,2.62-3.21,6.29-5.49,6.76c-3.81,0.78-7.24-1.47-7.37-6.38
			c-0.12-4.46,2.25-6.42,6.73-6.84C366.28,228.54,369.28,230.8,368.49,234.9z M398.74,237.04c-0.5,2.62-3.21,6.29-5.49,6.76
			c-3.81,0.78-7.24-1.47-7.37-6.38c-0.12-4.46,2.25-6.42,6.73-6.84C396.53,230.69,399.53,232.94,398.74,237.04z"/>
		<path class="st0" d="M477.26,314.91H444.9c7.59-4.39,14.45-9.88,20.53-16.48c33.7-36.63,30.87-93.7,30.73-96.12
			c-0.33-5.8-5.31-10.22-11.1-9.91c-5.8,0.32-10.25,5.29-9.93,11.09c0.03,0.5,2.4,50.77-25.27,80.75
			c-13.24,14.34-31.64,21.92-54.68,22.53c-22.04,0.58-39.29-5.76-51.28-18.83c-26.85-29.27-21.09-83.28-21.03-83.81
			c0.67-5.78-3.48-11-9.25-11.67c-2.29-0.26-4.49,0.24-6.35,1.29c-8.28-0.73-28.27-1.09-41.5,10.34
			c-7.71,6.66-11.74,16.26-11.66,27.74c0.12,18.72,8.5,33.13,22.99,39.52c5.05,2.23,10.46,3.31,15.93,3.31
			c5.72,0,11.49-1.2,16.97-3.5c4.06,11.01,9.92,21.77,18.31,30.94c4.58,5,9.67,9.26,15.24,12.81h-19.57
			c-5.82,0-10.53,4.72-10.53,10.53s4.72,10.53,10.53,10.53h153.29c5.82,0,10.53-4.72,10.53-10.53S483.08,314.91,477.26,314.91z
			 M285.05,253.29c-7.17-3.16-11.16-10.84-11.23-21.6c-0.05-7.56,2.72-10.85,4.81-12.67c5.64-4.9,15.5-5.94,22.61-5.84
			c-0.21,9.39,0.21,23.52,3.32,38.7C298.2,255.25,290.93,255.89,285.05,253.29z"/>
	</g>
</g>
<g>
	<path class="st0" d="M447.06,391.72"/>
</g>
<g>
	<path class="st0" d="M442.6,394.19"/>
</g>
</svg>
